<svg width="264" height="56" viewBox="0 0 264 56" fill="none" xmlns="http://www.w3.org/2000/svg">
<path d="M22.1602 55.84C7.38688 55.84 0.000214815 49.0667 0.000214815 35.52V2.95639e-05H11.4402V34.88C11.4402 39.4134 12.3202 42.6134 14.0802 44.48C15.8935 46.3467 18.7202 47.28 22.5602 47.28C26.2402 47.28 28.9069 46.3467 30.5602 44.48C32.2136 42.6134 33.0402 39.3867 33.0402 34.8V2.95639e-05H43.4402V35.28C43.4402 42.2667 41.7069 47.44 38.2402 50.8C34.7736 54.16 29.4136 55.84 22.1602 55.84ZM54.3046 54.88V2.95639e-05H67.0246L88.2246 36.48H88.4646V2.95639e-05H98.4646V54.88H87.2646L64.5446 15.52H64.3046V54.88H54.3046ZM124.175 54.88L104.975 2.95639e-05H116.655L130.415 40.96H130.655L144.255 2.95639e-05H154.815L135.695 54.88H124.175ZM161.414 54.88V2.95639e-05H196.614V8.56003H172.774V22.48H191.414V30.96H172.774V46.16H197.174V54.88H161.414ZM206.966 54.88V2.95639e-05H218.406V54.88H206.966ZM229.93 54.88V2.95639e-05H241.29V46.16H263.85V54.88H229.93Z" fill="#FF5C7A"/>
</svg>
