<svg width="182" height="169" viewBox="0 0 182 169" fill="none" xmlns="http://www.w3.org/2000/svg">
<g filter="url(#filter0_d_227_902)">
<path d="M62.8849 84.24C59.6849 84.1867 56.6182 83.76 53.6849 82.96C50.8049 82.16 48.2182 80.8533 45.9249 79.04C43.6315 77.2267 41.8182 74.8 40.4849 71.76C39.2049 68.72 38.5649 64.96 38.5649 60.48V33.36C38.5649 30.8 39.3915 28.9067 41.0449 27.68C42.7515 26.4 44.7249 25.76 46.9649 25.76C49.1515 25.76 51.0982 26.4 52.8049 27.68C54.5116 28.9067 55.3649 30.8 55.3649 33.36V56.72C55.3649 60.5067 56.2449 63.28 58.0049 65.04C59.8182 66.8 62.1382 67.6 64.9649 67.44C67.9516 67.2267 70.0849 66.08 71.3649 64C72.6982 61.92 73.0716 59.1467 72.4849 55.68C72.1116 53.3333 71.6849 51.36 71.2049 49.76C70.7782 48.16 70.3249 46.7467 69.8449 45.52C69.4182 44.24 69.0449 42.9867 68.7249 41.76C68.4049 40.48 68.1649 38.9867 68.0049 37.28C67.6849 33.7067 68.4049 30.9067 70.1649 28.88C71.9782 26.8 74.3516 25.76 77.2849 25.76C80.2182 25.76 82.5116 26.7467 84.1649 28.72C85.8182 30.6933 86.6449 33.68 86.6449 37.68V60.48C86.6449 64.96 86.0049 68.7467 84.7249 71.84C83.4982 74.88 81.7649 77.3333 79.5249 79.2C77.3382 81.0133 74.8049 82.32 71.9249 83.12C69.0982 83.8667 66.0849 84.24 62.8849 84.24ZM100.631 84C97.9645 84 95.9378 83.1733 94.5511 81.52C93.1645 79.8667 92.4711 77.6533 92.4711 74.88V37.36C92.4711 34.5867 92.9778 32.3467 93.9911 30.64C95.0578 28.88 96.4178 27.6 98.0711 26.8C99.7778 26 101.618 25.6 103.591 25.6C106.524 25.6 109.004 26.3733 111.031 27.92C113.058 29.4667 114.631 32.1867 115.751 36.08L124.391 65.6H125.671V34.88C125.671 32.0533 126.391 29.84 127.831 28.24C129.271 26.5867 131.324 25.76 133.991 25.76C136.764 25.76 138.818 26.5867 140.151 28.24C141.538 29.84 142.231 32.0533 142.231 34.88V71.04C142.231 75.52 141.244 78.8267 139.271 80.96C137.298 83.0933 134.524 84.16 130.951 84.16C127.324 84.16 124.498 83.2 122.471 81.28C120.444 79.36 118.898 76.5333 117.831 72.8L112.151 53.36C112.044 52.8267 111.831 52.3467 111.511 51.92C111.244 51.44 110.871 51.2 110.391 51.2C109.804 51.2 109.404 51.44 109.191 51.92C108.978 52.3467 108.871 52.8267 108.871 53.36V74.88C108.871 77.6533 108.178 79.8667 106.791 81.52C105.404 83.1733 103.351 84 100.631 84ZM32.7199 164.24C29.1466 164.24 26.1866 163.547 23.8399 162.16C21.5466 160.773 19.6532 158.773 18.1599 156.16C16.7199 153.547 15.4132 150.373 14.2399 146.64L5.27988 117.92C4.42655 115.253 4.47988 112.933 5.43988 110.96C6.45322 108.933 8.23988 107.547 10.7999 106.8C13.1466 106.107 15.2799 106.267 17.1999 107.28C19.1199 108.24 20.4266 109.893 21.1199 112.24L29.8399 139.92C30.7465 142.907 31.8932 144.907 33.2799 145.92C34.7199 146.88 36.2666 147.093 37.9199 146.56C39.6266 146.08 40.7199 145.12 41.1999 143.68C41.6799 142.187 41.5466 139.947 40.7999 136.96C39.5732 131.627 38.7466 127.44 38.3199 124.4C37.8932 121.36 37.6799 118.96 37.6799 117.2C37.6799 114.213 38.4799 111.653 40.0799 109.52C41.7332 107.333 44.2666 106.24 47.6799 106.24C51.0399 106.24 53.4666 107.333 54.9599 109.52C56.5066 111.653 57.2799 114.213 57.2799 117.2C57.2799 118.96 57.0399 120.773 56.5599 122.64C56.0799 124.507 55.5199 126.427 54.8799 128.4L47.7599 149.92C46.7999 152.8 45.7332 155.333 44.5599 157.52C43.4399 159.653 41.9466 161.307 40.0799 162.48C38.2666 163.653 35.8132 164.24 32.7199 164.24ZM81.2099 163.84C78.5966 163.84 76.0899 163.6 73.6899 163.12C71.3432 162.64 69.2632 161.733 67.4499 160.4C65.6899 159.013 64.2765 157.04 63.2099 154.48C62.1965 151.867 61.6899 148.453 61.6899 144.24C61.6899 140.453 62.1965 137.2 63.2099 134.48C64.2232 131.76 65.4232 129.6 66.8099 128C68.2499 126.4 69.5565 125.413 70.7299 125.04L70.3299 123.52H68.9699C66.5165 123.52 64.5699 122.747 63.1299 121.2C61.7432 119.6 61.0232 117.44 60.9699 114.72C60.9165 112.053 61.6099 109.92 63.0499 108.32C64.5432 106.72 66.5165 105.92 68.9699 105.92H97.6899C103.397 105.92 106.25 108.587 106.25 113.92C106.25 116.32 105.557 118.24 104.17 119.68C102.783 121.12 100.623 121.84 97.6899 121.84H81.1299C79.1565 121.84 78.1699 122.987 78.1699 125.28V131.28C80.8366 130.693 83.6099 130 86.4899 129.2C89.4232 128.4 92.1966 128 94.8099 128C97.3166 128 99.1832 128.56 100.41 129.68C101.69 130.747 102.33 132.213 102.33 134.08C102.33 136 101.69 137.52 100.41 138.64C99.1832 139.707 97.3166 140.267 94.8099 140.32C92.1966 140.373 89.4232 140 86.4899 139.2C83.5565 138.4 80.7565 137.707 78.0899 137.12V147.6C78.0899 148.613 78.3566 149.333 78.8899 149.76C79.4766 150.133 80.3832 149.973 81.6099 149.28C84.2766 147.733 86.8899 146.507 89.4499 145.6C92.0099 144.64 94.5166 144.16 96.9699 144.16C100.437 144.16 103.05 145.067 104.81 146.88C106.623 148.693 107.53 151.067 107.53 154C107.53 157.147 106.57 159.573 104.65 161.28C102.783 162.987 99.7432 163.84 95.5299 163.84H81.2099ZM119.151 164.16C116.697 164.16 114.697 163.413 113.151 161.92C111.604 160.427 110.831 158.533 110.831 156.24V113.92C110.831 111.573 111.577 109.6 113.071 108C114.617 106.4 116.644 105.6 119.151 105.6C121.817 105.6 123.897 106.4 125.391 108C126.937 109.547 127.711 111.467 127.711 113.76V156.24C127.711 158.533 126.884 160.427 125.231 161.92C123.631 163.413 121.604 164.16 119.151 164.16ZM132.862 113.52C132.862 111.067 133.608 109.173 135.102 107.84C136.648 106.453 138.622 105.76 141.022 105.76C143.528 105.76 145.528 106.453 147.022 107.84C148.515 109.173 149.262 111.067 149.262 113.52V147.6C149.262 148.613 149.528 149.333 150.062 149.76C150.595 150.133 151.475 149.973 152.702 149.28C155.368 147.733 157.742 146.507 159.822 145.6C161.902 144.64 164.195 144.16 166.702 144.16C170.168 144.16 172.782 145.067 174.542 146.88C176.302 148.693 177.182 151.067 177.182 154C177.182 157.147 176.222 159.573 174.302 161.28C172.435 162.987 169.422 163.84 165.262 163.84H148.782C145.262 163.84 142.328 163.44 139.982 162.64C137.635 161.787 135.848 160.267 134.622 158.08C133.448 155.893 132.862 152.72 132.862 148.56V113.52Z" fill="#FF5C7A"/>
</g>
<g filter="url(#filter1_d_227_902)">
<path d="M117.88 34.1143V16.6286C117.88 16.0133 118.022 15.4305 118.306 14.88C118.59 14.3295 118.981 13.8762 119.48 13.52L131.48 4.77715C132.18 4.25906 132.98 4.00001 133.88 4.00001C134.78 4.00001 135.58 4.25906 136.28 4.77715L148.28 13.52C148.78 13.8762 149.172 14.3295 149.456 14.88C149.74 15.4305 149.881 16.0133 149.88 16.6286V34.1143C149.88 35.1829 149.488 36.0979 148.704 36.8595C147.92 37.6211 146.979 38.0013 145.88 38H145.883C145.316 38 144.842 37.8135 144.459 37.4405C144.076 37.0674 143.884 36.6063 143.883 36.0571V31.2L143.38 28.5L141.88 26.3429C141.496 25.9711 141.073 25.3704 140.38 25C139.765 24.6714 140.38 25 138.38 24.5C136.378 24.1 135.247 24 133.88 24C132.512 24 129.77 24.2657 129.38 24.5C128.99 24.7343 128.77 24.7657 128.38 25L127.38 25.5C127.38 25.5 126.404 25.9241 125.877 26.3429C124.085 27.7667 123.877 31.2 123.877 31.2V36.0571C123.877 36.6076 123.685 37.0694 123.301 37.4424C122.917 37.8154 122.442 38.0013 121.877 38H121.88C120.78 38 119.839 37.6199 119.056 36.8595C118.273 36.0992 117.881 35.1842 117.88 34.1143Z" fill="#FF5C7A"/>
</g>
<defs>
<filter id="filter0_d_227_902" x="0" y="21.6" width="181.182" height="146.64" filterUnits="userSpaceOnUse" color-interpolation-filters="sRGB">
<feFlood flood-opacity="0" result="BackgroundImageFix"/>
<feColorMatrix in="SourceAlpha" type="matrix" values="0 0 0 0 0 0 0 0 0 0 0 0 0 0 0 0 0 0 127 0" result="hardAlpha"/>
<feOffset/>
<feGaussianBlur stdDeviation="2"/>
<feComposite in2="hardAlpha" operator="out"/>
<feColorMatrix type="matrix" values="0 0 0 0 0 0 0 0 0 0 0 0 0 0 0 0 0 0 0.25 0"/>
<feBlend mode="normal" in2="BackgroundImageFix" result="effect1_dropShadow_227_902"/>
<feBlend mode="normal" in="SourceGraphic" in2="effect1_dropShadow_227_902" result="shape"/>
</filter>
<filter id="filter1_d_227_902" x="113.88" y="0" width="40" height="42" filterUnits="userSpaceOnUse" color-interpolation-filters="sRGB">
<feFlood flood-opacity="0" result="BackgroundImageFix"/>
<feColorMatrix in="SourceAlpha" type="matrix" values="0 0 0 0 0 0 0 0 0 0 0 0 0 0 0 0 0 0 127 0" result="hardAlpha"/>
<feOffset/>
<feGaussianBlur stdDeviation="2"/>
<feComposite in2="hardAlpha" operator="out"/>
<feColorMatrix type="matrix" values="0 0 0 0 0 0 0 0 0 0 0 0 0 0 0 0 0 0 0.25 0"/>
<feBlend mode="normal" in2="BackgroundImageFix" result="effect1_dropShadow_227_902"/>
<feBlend mode="normal" in="SourceGraphic" in2="effect1_dropShadow_227_902" result="shape"/>
</filter>
</defs>
</svg>
