<svg width="21" height="21" viewBox="0 0 21 21" fill="none" xmlns="http://www.w3.org/2000/svg">
<path d="M19.3035 7.87505L7.87489 19.3028C7.75301 19.4247 7.60831 19.5214 7.44905 19.5874C7.28979 19.6534 7.11909 19.6873 6.94671 19.6873C6.77432 19.6873 6.60362 19.6534 6.44436 19.5874C6.28511 19.5214 6.1404 19.4247 6.01852 19.3028L1.6963 14.9814C1.57439 14.8595 1.47768 14.7148 1.4117 14.5556C1.34573 14.3963 1.31177 14.2256 1.31177 14.0532C1.31177 13.8808 1.34573 13.7101 1.4117 13.5509C1.47768 13.3916 1.57439 13.2469 1.6963 13.125L4.08915 10.7322C4.11962 10.7017 4.15581 10.6775 4.19564 10.661C4.23548 10.6445 4.27818 10.636 4.3213 10.636C4.36442 10.636 4.40711 10.6445 4.44695 10.661C4.48678 10.6775 4.52297 10.7017 4.55344 10.7322L7.41059 13.5893C7.47439 13.6531 7.55066 13.703 7.63461 13.736C7.71857 13.769 7.80843 13.7843 7.89857 13.781C7.98871 13.7777 8.0772 13.7558 8.15852 13.7168C8.23983 13.6777 8.31223 13.6223 8.37118 13.5541C8.47895 13.4241 8.53375 13.2582 8.52462 13.0896C8.5155 12.9209 8.44313 12.762 8.32196 12.6443L5.48122 9.8036C5.41985 9.74209 5.38539 9.65875 5.38539 9.57186C5.38539 9.48497 5.41985 9.40164 5.48122 9.34012L6.71169 8.10965C6.74216 8.07915 6.77835 8.05494 6.81818 8.03843C6.85802 8.02192 6.90071 8.01342 6.94384 8.01342C6.98696 8.01342 7.02965 8.02192 7.06949 8.03843C7.10932 8.05494 7.14551 8.07915 7.17598 8.10965L10.0331 10.9668C10.0969 11.0306 10.1732 11.0805 10.2572 11.1135C10.3411 11.1464 10.431 11.1617 10.5211 11.1584C10.6112 11.1551 10.6997 11.1333 10.7811 11.0942C10.8624 11.0552 10.9348 10.9998 10.9937 10.9315C11.1015 10.8015 11.1563 10.6357 11.1472 10.467C11.138 10.2984 11.0657 10.1394 10.9445 10.0218L8.10704 7.1786C8.04567 7.11709 8.01121 7.03375 8.01121 6.94686C8.01121 6.85997 8.04567 6.77664 8.10704 6.71512L9.33751 5.48465C9.39902 5.42329 9.48236 5.38883 9.56925 5.38883C9.65613 5.38883 9.73947 5.42329 9.80098 5.48465L12.6581 8.3418C12.7219 8.4057 12.7983 8.45573 12.8823 8.48878C12.9663 8.52183 13.0563 8.53718 13.1465 8.53387C13.2368 8.53056 13.3254 8.50866 13.4067 8.46954C13.4881 8.43042 13.5606 8.37493 13.6195 8.30653C13.7272 8.17642 13.7819 8.0105 13.7726 7.84187C13.7633 7.67325 13.6908 7.51432 13.5695 7.3968L10.732 4.5536C10.6707 4.49209 10.6362 4.40875 10.6362 4.32186C10.6362 4.23498 10.6707 4.15164 10.732 4.09012L13.1249 1.69727C13.2468 1.57536 13.3915 1.47866 13.5507 1.41268C13.71 1.3467 13.8807 1.31274 14.0531 1.31274C14.2255 1.31274 14.3962 1.3467 14.5554 1.41268C14.7147 1.47866 14.8594 1.57536 14.9813 1.69727L19.3035 6.01868C19.4254 6.14056 19.5221 6.28526 19.5881 6.44452C19.6541 6.60378 19.688 6.77448 19.688 6.94686C19.688 7.11925 19.6541 7.28994 19.5881 7.4492C19.5221 7.60846 19.4254 7.75316 19.3035 7.87505Z" fill="#3E3A39"/>
</svg>
