<svg width="230" height="230" viewBox="0 0 230 230" fill="none" xmlns="http://www.w3.org/2000/svg">
<rect x="1" y="1" width="228" height="228" rx="9" fill="#FF5C7A"/>
<rect x="1" y="1" width="228" height="228" rx="9" stroke="#FF5C7A" stroke-width="2"/>
<g filter="url(#filter0_d_227_925)">
<path d="M87.005 112.24C83.805 112.187 80.7383 111.76 77.805 110.96C74.925 110.16 72.3383 108.853 70.045 107.04C67.7517 105.227 65.9383 102.8 64.605 99.76C63.325 96.72 62.685 92.96 62.685 88.48V61.36C62.685 58.8 63.5117 56.9067 65.165 55.68C66.8717 54.4 68.845 53.76 71.085 53.76C73.2717 53.76 75.2183 54.4 76.925 55.68C78.6317 56.9067 79.485 58.8 79.485 61.36V84.72C79.485 88.5067 80.365 91.28 82.125 93.04C83.9383 94.8 86.2583 95.6 89.085 95.44C92.0717 95.2267 94.205 94.08 95.485 92C96.8183 89.92 97.1917 87.1467 96.605 83.68C96.2317 81.3333 95.805 79.36 95.325 77.76C94.8983 76.16 94.445 74.7467 93.965 73.52C93.5383 72.24 93.165 70.9867 92.845 69.76C92.525 68.48 92.285 66.9867 92.125 65.28C91.805 61.7067 92.525 58.9067 94.285 56.88C96.0983 54.8 98.4717 53.76 101.405 53.76C104.338 53.76 106.632 54.7467 108.285 56.72C109.938 58.6933 110.765 61.68 110.765 65.68V88.48C110.765 92.96 110.125 96.7467 108.845 99.84C107.618 102.88 105.885 105.333 103.645 107.2C101.458 109.013 98.925 110.32 96.045 111.12C93.2183 111.867 90.205 112.24 87.005 112.24ZM124.751 112C122.085 112 120.058 111.173 118.671 109.52C117.285 107.867 116.591 105.653 116.591 102.88V65.36C116.591 62.5867 117.098 60.3467 118.111 58.64C119.178 56.88 120.538 55.6 122.191 54.8C123.898 54 125.738 53.6 127.711 53.6C130.645 53.6 133.125 54.3733 135.151 55.92C137.178 57.4667 138.751 60.1867 139.871 64.08L148.511 93.6H149.791V62.88C149.791 60.0533 150.511 57.84 151.951 56.24C153.391 54.5867 155.445 53.76 158.111 53.76C160.885 53.76 162.938 54.5867 164.271 56.24C165.658 57.84 166.351 60.0533 166.351 62.88V99.04C166.351 103.52 165.365 106.827 163.391 108.96C161.418 111.093 158.645 112.16 155.071 112.16C151.445 112.16 148.618 111.2 146.591 109.28C144.565 107.36 143.018 104.533 141.951 100.8L136.271 81.36C136.165 80.8267 135.951 80.3467 135.631 79.92C135.365 79.44 134.991 79.2 134.511 79.2C133.925 79.2 133.525 79.44 133.311 79.92C133.098 80.3467 132.991 80.8267 132.991 81.36V102.88C132.991 105.653 132.298 107.867 130.911 109.52C129.525 111.173 127.471 112 124.751 112ZM56.84 192.24C53.2667 192.24 50.3067 191.547 47.96 190.16C45.6667 188.773 43.7733 186.773 42.28 184.16C40.84 181.547 39.5333 178.373 38.36 174.64L29.4 145.92C28.5467 143.253 28.6 140.933 29.56 138.96C30.5733 136.933 32.36 135.547 34.92 134.8C37.2667 134.107 39.4 134.267 41.32 135.28C43.24 136.24 44.5467 137.893 45.24 140.24L53.96 167.92C54.8667 170.907 56.0133 172.907 57.4 173.92C58.84 174.88 60.3867 175.093 62.04 174.56C63.7467 174.08 64.84 173.12 65.32 171.68C65.8 170.187 65.6667 167.947 64.92 164.96C63.6933 159.627 62.8667 155.44 62.44 152.4C62.0133 149.36 61.8 146.96 61.8 145.2C61.8 142.213 62.6 139.653 64.2 137.52C65.8533 135.333 68.3867 134.24 71.8 134.24C75.16 134.24 77.5867 135.333 79.08 137.52C80.6267 139.653 81.4 142.213 81.4 145.2C81.4 146.96 81.16 148.773 80.68 150.64C80.2 152.507 79.64 154.427 79 156.4L71.88 177.92C70.92 180.8 69.8533 183.333 68.68 185.52C67.56 187.653 66.0667 189.307 64.2 190.48C62.3867 191.653 59.9333 192.24 56.84 192.24ZM105.33 191.84C102.717 191.84 100.21 191.6 97.81 191.12C95.4633 190.64 93.3833 189.733 91.57 188.4C89.81 187.013 88.3967 185.04 87.33 182.48C86.3167 179.867 85.81 176.453 85.81 172.24C85.81 168.453 86.3167 165.2 87.33 162.48C88.3433 159.76 89.5433 157.6 90.93 156C92.37 154.4 93.6767 153.413 94.85 153.04L94.45 151.52H93.09C90.6367 151.52 88.69 150.747 87.25 149.2C85.8633 147.6 85.1433 145.44 85.09 142.72C85.0367 140.053 85.73 137.92 87.17 136.32C88.6633 134.72 90.6367 133.92 93.09 133.92H121.81C127.517 133.92 130.37 136.587 130.37 141.92C130.37 144.32 129.677 146.24 128.29 147.68C126.903 149.12 124.743 149.84 121.81 149.84H105.25C103.277 149.84 102.29 150.987 102.29 153.28V159.28C104.957 158.693 107.73 158 110.61 157.2C113.543 156.4 116.317 156 118.93 156C121.437 156 123.303 156.56 124.53 157.68C125.81 158.747 126.45 160.213 126.45 162.08C126.45 164 125.81 165.52 124.53 166.64C123.303 167.707 121.437 168.267 118.93 168.32C116.317 168.373 113.543 168 110.61 167.2C107.677 166.4 104.877 165.707 102.21 165.12V175.6C102.21 176.613 102.477 177.333 103.01 177.76C103.597 178.133 104.503 177.973 105.73 177.28C108.397 175.733 111.01 174.507 113.57 173.6C116.13 172.64 118.637 172.16 121.09 172.16C124.557 172.16 127.17 173.067 128.93 174.88C130.743 176.693 131.65 179.067 131.65 182C131.65 185.147 130.69 187.573 128.77 189.28C126.903 190.987 123.863 191.84 119.65 191.84H105.33ZM143.271 192.16C140.817 192.16 138.817 191.413 137.271 189.92C135.724 188.427 134.951 186.533 134.951 184.24V141.92C134.951 139.573 135.697 137.6 137.191 136C138.737 134.4 140.764 133.6 143.271 133.6C145.937 133.6 148.017 134.4 149.511 136C151.057 137.547 151.831 139.467 151.831 141.76V184.24C151.831 186.533 151.004 188.427 149.351 189.92C147.751 191.413 145.724 192.16 143.271 192.16ZM156.982 141.52C156.982 139.067 157.729 137.173 159.222 135.84C160.769 134.453 162.742 133.76 165.142 133.76C167.649 133.76 169.649 134.453 171.142 135.84C172.635 137.173 173.382 139.067 173.382 141.52V175.6C173.382 176.613 173.649 177.333 174.182 177.76C174.715 178.133 175.595 177.973 176.822 177.28C179.489 175.733 181.862 174.507 183.942 173.6C186.022 172.64 188.315 172.16 190.822 172.16C194.289 172.16 196.902 173.067 198.662 174.88C200.422 176.693 201.302 179.067 201.302 182C201.302 185.147 200.342 187.573 198.422 189.28C196.555 190.987 193.542 191.84 189.382 191.84H172.902C169.382 191.84 166.449 191.44 164.102 190.64C161.755 189.787 159.969 188.267 158.742 186.08C157.569 183.893 156.982 180.72 156.982 176.56V141.52Z" fill="white"/>
</g>
<g filter="url(#filter1_d_227_925)">
<path d="M142 62.1143V44.6286C142 44.0133 142.142 43.4305 142.426 42.88C142.71 42.3295 143.101 41.8762 143.6 41.52L155.6 32.7772C156.3 32.2591 157.1 32 158 32C158.9 32 159.7 32.2591 160.4 32.7772L172.4 41.52C172.9 41.8762 173.292 42.3295 173.576 42.88C173.86 43.4305 174.001 44.0133 174 44.6286V62.1143C174 63.1829 173.608 64.0979 172.824 64.8595C172.04 65.6211 171.099 66.0013 170 66H170.003C169.437 66 168.962 65.8135 168.579 65.4405C168.197 65.0674 168.005 64.6063 168.003 64.0571V59.2L167.5 56.5L166 54.3429C165.616 53.9711 165.194 53.3704 164.5 53C163.885 52.6714 164.5 53 162.5 52.5C160.498 52.1 159.367 52 158 52C156.633 52 153.89 52.2657 153.5 52.5C153.11 52.7343 152.89 52.7657 152.5 53L151.5 53.5C151.5 53.5 150.524 53.9241 149.997 54.3429C148.205 55.7667 147.997 59.2 147.997 59.2V64.0571C147.997 64.6076 147.805 65.0694 147.421 65.4424C147.037 65.8154 146.562 66.0013 145.997 66H146C144.9 66 143.959 65.6199 143.176 64.8595C142.393 64.0992 142.001 63.1842 142 62.1143Z" fill="white"/>
</g>
<defs>
<filter id="filter0_d_227_925" x="24.1201" y="49.6" width="181.182" height="146.64" filterUnits="userSpaceOnUse" color-interpolation-filters="sRGB">
<feFlood flood-opacity="0" result="BackgroundImageFix"/>
<feColorMatrix in="SourceAlpha" type="matrix" values="0 0 0 0 0 0 0 0 0 0 0 0 0 0 0 0 0 0 127 0" result="hardAlpha"/>
<feOffset/>
<feGaussianBlur stdDeviation="2"/>
<feComposite in2="hardAlpha" operator="out"/>
<feColorMatrix type="matrix" values="0 0 0 0 0 0 0 0 0 0 0 0 0 0 0 0 0 0 0.25 0"/>
<feBlend mode="normal" in2="BackgroundImageFix" result="effect1_dropShadow_227_925"/>
<feBlend mode="normal" in="SourceGraphic" in2="effect1_dropShadow_227_925" result="shape"/>
</filter>
<filter id="filter1_d_227_925" x="138" y="28" width="40" height="42" filterUnits="userSpaceOnUse" color-interpolation-filters="sRGB">
<feFlood flood-opacity="0" result="BackgroundImageFix"/>
<feColorMatrix in="SourceAlpha" type="matrix" values="0 0 0 0 0 0 0 0 0 0 0 0 0 0 0 0 0 0 127 0" result="hardAlpha"/>
<feOffset/>
<feGaussianBlur stdDeviation="2"/>
<feComposite in2="hardAlpha" operator="out"/>
<feColorMatrix type="matrix" values="0 0 0 0 0 0 0 0 0 0 0 0 0 0 0 0 0 0 0.25 0"/>
<feBlend mode="normal" in2="BackgroundImageFix" result="effect1_dropShadow_227_925"/>
<feBlend mode="normal" in="SourceGraphic" in2="effect1_dropShadow_227_925" result="shape"/>
</filter>
</defs>
</svg>
