<svg width="12" height="11" viewBox="0 0 12 11" fill="none" xmlns="http://www.w3.org/2000/svg">
<path d="M6.1975 0.170142C6.5965 -0.203858 7.25 0.0791423 7.25 0.626142V9.81114C7.25 10.3581 6.597 10.6411 6.1975 10.2671L3.729 7.95414C3.56691 7.80226 3.35313 7.71771 3.131 7.71764H1.625C1.19402 7.71764 0.780698 7.54644 0.475951 7.24169C0.171205 6.93694 0 6.52362 0 6.09264V4.34664C0 3.91567 0.171205 3.50234 0.475951 3.19759C0.780698 2.89285 1.19402 2.72164 1.625 2.72164H3.1305C3.353 2.72164 3.567 2.63664 3.729 2.48514L6.1975 0.170142ZM9.822 0.811142C9.89668 0.745544 9.99434 0.712277 10.0935 0.718653C10.1927 0.725028 10.2853 0.770524 10.351 0.845142C11.4159 2.05315 12.0024 3.60879 12 5.21914C12 6.89514 11.377 8.42614 10.351 9.59264C10.319 9.63131 10.2796 9.66317 10.235 9.68632C10.1905 9.70947 10.1418 9.72344 10.0917 9.72741C10.0417 9.73138 9.99138 9.72527 9.94375 9.70943C9.89612 9.69359 9.85216 9.66836 9.81446 9.63522C9.77677 9.60207 9.74611 9.5617 9.72431 9.51649C9.7025 9.47128 9.68999 9.42216 9.68753 9.37203C9.68506 9.32189 9.69268 9.27178 9.70994 9.22465C9.7272 9.17751 9.75374 9.13433 9.788 9.09764C10.7324 8.02657 11.2524 6.64708 11.25 5.21914C11.2524 3.79121 10.7324 2.41172 9.788 1.34064C9.75544 1.30365 9.73049 1.26061 9.71458 1.21397C9.69867 1.16734 9.6921 1.11802 9.69526 1.06885C9.69842 1.01967 9.71124 0.971599 9.73298 0.927381C9.75473 0.883162 9.78498 0.843664 9.822 0.811142ZM9.1765 2.37064C9.14695 2.33125 9.10993 2.29805 9.06756 2.27296C9.02519 2.24787 8.97828 2.23138 8.92953 2.22441C8.88078 2.21745 8.83114 2.22015 8.78343 2.23237C8.73573 2.2446 8.6909 2.26609 8.6515 2.29564C8.6121 2.32519 8.57891 2.36221 8.55382 2.40458C8.52873 2.44696 8.51223 2.49386 8.50527 2.54261C8.4983 2.59136 8.50101 2.64101 8.51323 2.68871C8.52545 2.73641 8.54695 2.78125 8.5765 2.82064C9.09624 3.51212 9.37656 4.35411 9.375 5.21914C9.375 6.11914 9.078 6.94914 8.5765 7.61764C8.54695 7.65704 8.52545 7.70187 8.51323 7.74957C8.50101 7.79728 8.4983 7.84692 8.50527 7.89568C8.51223 7.94443 8.52873 7.99133 8.55382 8.0337C8.57891 8.07608 8.6121 8.11309 8.6515 8.14264C8.6909 8.17219 8.73573 8.19369 8.78343 8.20591C8.83114 8.21813 8.88078 8.22084 8.92953 8.21387C8.97828 8.20691 9.02519 8.19041 9.06756 8.16532C9.10993 8.14023 9.14695 8.10704 9.1765 8.06764C9.79361 7.24634 10.1266 6.24645 10.125 5.21914C10.1266 4.19183 9.79361 3.19195 9.1765 2.37064Z" fill="#FF5C7A"/>
</svg>
